<svg id="Layer_1" data-name="Layer 1" xmlns="http://www.w3.org/2000/svg" viewBox="0 0 2267 1492.37"><defs><style>.cls-1{fill:#f1e8de;}</style></defs><path class="cls-1" d="M160.89,1364.16c0,20.17,9.6,30.74,41,45.8,39.08,18.57,57.33,33,57.33,66,0,33.62-27.54,57.65-69.17,57.65-38.44,0-63.74-15.38-67.59-56.37h12.82c6.08,32,24.34,41.31,53.16,41.31,24.35,0,40.36-12.49,40.36-35.87,0-21.46-9.29-31.39-45.16-46.76-36.52-16-51.25-32.67-51.25-63.1,0-30.1,23.7-57,62.14-57,30.74,0,52.2,15.7,57,50.93H238.72c-4.81-26-20.82-35.87-42-35.87C174.66,1330.85,160.89,1344.3,160.89,1364.16Z" transform="translate(-122.45 -253.82)"/><path class="cls-1" d="M452.34,1319h19.54v136.12c0,53.16-33.95,78.47-79.43,78.47-52.21,0-85.84-24-85.84-83.28V1319h32v131.31c0,48.69,24.66,66,57.65,66,27.54,0,56-16.33,56-58.29Z" transform="translate(-122.45 -253.82)"/><path class="cls-1" d="M689,1532,555.46,1353v177.43H537.84V1319h31.39l116.26,156V1319h17.62v213Z" transform="translate(-122.45 -253.82)"/><path class="cls-1" d="M995.52,1432.7H884.7v97.68H852.35V1319H884.7v97.68H995.52V1319h32.35v211.38H995.52Z" transform="translate(-122.45 -253.82)"/><path class="cls-1" d="M1129.38,1530.38H1097V1319h32.35Z" transform="translate(-122.45 -253.82)"/><path class="cls-1" d="M1198.55,1319h32.35v195.37h95.45v16h-127.8Z" transform="translate(-122.45 -253.82)"/><path class="cls-1" d="M1370.54,1319h32.35v195.37h95.44v16H1370.54Z" transform="translate(-122.45 -253.82)"/><path class="cls-1" d="M1654.94,1435.9v94.48h-32.35V1319h121.07v16h-88.72v84.88h82.31v16Z" transform="translate(-122.45 -253.82)"/><path class="cls-1" d="M1867,1466h-79.43l-25.62,64.37h-19.54l87.11-213h10.9l88.39,213h-35.55Zm-40.36-99.29L1793.93,1450h66.62Z" transform="translate(-122.45 -253.82)"/><path class="cls-1" d="M2024.85,1434.62h-22.74v95.76h-32.35V1319H2037c46.44,0,74.63,19.53,74.63,55.4,0,27.55-19.54,51.25-53.17,58l69.82,98h-38.43ZM2002.11,1335v83.59H2046c15.69,0,31.71-10.25,31.71-42.27,0-32.35-17.94-41.32-40.68-41.32Z" transform="translate(-122.45 -253.82)"/><path class="cls-1" d="M2262.17,1532l-67.58-169.11v167.5H2177V1319h35.87l63.42,162.7L2346.4,1319h33.31v211.38h-32.34v-171L2273.06,1532Z" transform="translate(-122.45 -253.82)"/><path class="cls-1" d="M166.58,1744.17,135,1654.66h13.42l19.32,58.24c2.55,7.52,3,9.13,5.91,19.32,2.28-9,3.49-12.88,5.5-19.32L198,1654.66H211.4l-31,89.51Z" transform="translate(-122.45 -253.82)"/><path class="cls-1" d="M304.4,1665.8H254.34v27H300.1v10.47H254.34V1733h51.8v11.14H241.59v-89.51H304.4Z" transform="translate(-122.45 -253.82)"/><path class="cls-1" d="M373.51,1744.17H360.76V1665.8H332.85v-11.14h68.57v11.14H373.51Z" transform="translate(-122.45 -253.82)"/><path class="cls-1" d="M494.42,1665.8H444.37v27h45.76v10.47H444.37V1733h51.8v11.14H431.62v-89.51h62.8Z" transform="translate(-122.45 -253.82)"/><path class="cls-1" d="M542.46,1744.17H529.72v-89.51h36.5c11.67,0,17.85,1.61,23.35,6s8.19,10.87,8.19,18.92c0,10.2-4.3,17-13.83,21.87,7.12,3.22,9.93,8.32,10.61,18.93l.53,7.51c.67,8.59,1.75,12.48,4.43,16.24H583.93c-1.07-3.76-1.34-5.77-2-16.24l-.67-6.58c-.81-9.12-5.9-14.09-14.36-14.09H542.46Zm21.34-47.37c6.85,0,11.55-1.21,15-3.76a15.52,15.52,0,0,0,5.91-12.48c0-9.26-6.31-14.76-16.78-14.76h-25.5v31Z" transform="translate(-122.45 -253.82)"/><path class="cls-1" d="M647,1744.17H634.26v-89.51H647Z" transform="translate(-122.45 -253.82)"/><path class="cls-1" d="M743.1,1744.17l-36.64-56.5c-4.43-7-7.12-11.41-9.26-15.43.27,4,.4,12.48.4,16.91v55H685.52v-89.51h13l35.16,54.48a211.14,211.14,0,0,1,10.6,18.52c-.27-5-.4-10.46-.4-16.77v-55.7H756v89Z" transform="translate(-122.45 -253.82)"/><path class="cls-1" d="M808.72,1717.33l-9.13,26.84H786l32.87-89.51H832.6l33,89.51h-14l-9.26-26.84Zm16.91-48.85-13.15,38.11h26.3Z" transform="translate(-122.45 -253.82)"/><path class="cls-1" d="M907.75,1744.17H895v-89.51h36.5c11.67,0,17.85,1.61,23.35,6s8.19,10.87,8.19,18.92c0,10.2-4.3,17-13.83,21.87,7.12,3.22,9.93,8.32,10.61,18.93l.53,7.51c.68,8.59,1.75,12.48,4.43,16.24H949.22c-1.07-3.76-1.34-5.77-2-16.24l-.67-6.58c-.81-9.12-5.91-14.09-14.36-14.09H907.75Zm21.34-47.37c6.85,0,11.54-1.21,15-3.76a15.54,15.54,0,0,0,5.9-12.48c0-9.26-6.31-14.76-16.78-14.76h-25.5v31Z" transform="translate(-122.45 -253.82)"/><path class="cls-1" d="M1032.7,1744.17H1020v-35.43l-33.82-54.08h15l17.58,29.52c1.34,2.28,5.37,9.8,7.11,13.29,2.69-5.37,5.1-9.8,7.12-13.29l17.17-29.52h15l-32.48,54.08Z" transform="translate(-122.45 -253.82)"/><path class="cls-1" d="M1163.4,1744.17h-12.74v-89.51h31.4c11.94,0,18.79,1.74,24.69,6.44,5.64,4.56,8.86,11.81,8.86,20.4,0,8.18-2.82,14.62-8.32,19.46-5.77,5.1-12.08,6.84-24.29,6.84h-19.6Zm20.54-46.84c6.84,0,11.14-1.21,14.36-4.16a16.06,16.06,0,0,0,0-23.21c-3.22-3-7.52-4.16-14.36-4.16H1163.4v31.53Z" transform="translate(-122.45 -253.82)"/><path class="cls-1" d="M1260,1703.1v41.07h-12.75v-89.51H1260V1692h45v-37.3h12.75v89.51H1305V1703.1Z" transform="translate(-122.45 -253.82)"/><path class="cls-1" d="M1393.42,1744.17h-12.75v-35.43l-33.82-54.08h15l17.57,29.52c1.34,2.28,5.37,9.8,7.12,13.29,2.68-5.37,5.09-9.8,7.11-13.29l17.18-29.52h15l-32.48,54.08Z" transform="translate(-122.45 -253.82)"/><path class="cls-1" d="M1505.21,1682.3c-1.34-12.34-8.72-18.38-22.28-18.38-11.94,0-19.59,5.09-19.59,12.88,0,6.58,4.7,10.47,16.11,13l14.49,3.22c10.6,2.41,16,4.7,20.26,8.59,4.7,4.16,7.25,10.2,7.25,17.17,0,16.92-13.69,27.38-35.43,27.38-23.22,0-37.17-11.81-39-33.28h13.28c1.34,14.23,10.74,22.14,26.17,22.14,12.88,0,22-6.3,22-15.29,0-6.71-4.83-11.14-14.22-13.42l-20.13-4.84c-16.38-3.89-23.76-11.13-23.76-23.21,0-15.71,13-25.64,33.55-25.64s31.54,9.53,34.36,29.66Z" transform="translate(-122.45 -253.82)"/><path class="cls-1" d="M1568.42,1744.17h-12.75v-89.51h12.75Z" transform="translate(-122.45 -253.82)"/><path class="cls-1" d="M1689.61,1700c0,26.7-18.26,46.16-43.22,46.16-25.23,0-43.21-19.46-43.21-46.83s18-46.71,43.08-46.71C1672,1652.64,1689.61,1672,1689.61,1700Zm-73.41-.67c0,21.2,12.21,35.69,30.19,35.69,17.72,0,30.19-14.49,30.19-35.16,0-21.74-12.07-36.1-30.19-36.1S1616.2,1678.28,1616.2,1699.35Z" transform="translate(-122.45 -253.82)"/><path class="cls-1" d="M1753.21,1744.17h-12.75V1665.8h-27.91v-11.14h68.58v11.14h-27.92Z" transform="translate(-122.45 -253.82)"/><path class="cls-1" d="M1824.07,1703.1v41.07h-12.75v-89.51h12.75V1692h45v-37.3h12.75v89.51H1869V1703.1Z" transform="translate(-122.45 -253.82)"/><path class="cls-1" d="M1983.09,1665.8h-50v27h45.76v10.47H1933V1733h51.8v11.14h-64.55v-89.51h62.8Z" transform="translate(-122.45 -253.82)"/><path class="cls-1" d="M2031.14,1744.17h-12.75v-89.51h36.5c11.68,0,17.85,1.61,23.35,6s8.19,10.87,8.19,18.92c0,10.2-4.29,17-13.82,21.87,7.11,3.22,9.93,8.32,10.6,18.93l.54,7.51c.67,8.59,1.74,12.48,4.42,16.24h-15.56c-1.07-3.76-1.34-5.77-2-16.24l-.68-6.58c-.8-9.12-5.9-14.09-14.36-14.09h-24.42Zm21.34-47.37c6.84,0,11.54-1.21,15-3.76a15.54,15.54,0,0,0,5.9-12.48c0-9.26-6.31-14.76-16.77-14.76h-25.5v31Z" transform="translate(-122.45 -253.82)"/><path class="cls-1" d="M2138.23,1717.33l-9.13,26.84h-13.55l32.88-89.51h13.69l33,89.51h-14l-9.27-26.84Zm16.91-48.85L2142,1706.59h26.3Z" transform="translate(-122.45 -253.82)"/><path class="cls-1" d="M2237.27,1744.17h-12.75v-89.51h31.4c11.95,0,18.79,1.74,24.7,6.44,5.63,4.56,8.85,11.81,8.85,20.4,0,8.18-2.81,14.62-8.32,19.46-5.77,5.1-12.08,6.84-24.29,6.84h-19.59Zm20.53-46.84c6.85,0,11.14-1.21,14.36-4.16a16,16,0,0,0,0-23.21c-3.22-3-7.51-4.16-14.36-4.16h-20.53v31.53Z" transform="translate(-122.45 -253.82)"/><path class="cls-1" d="M2357,1744.17h-12.75v-35.43l-33.81-54.08h15l17.58,29.52c1.34,2.28,5.37,9.8,7.11,13.29,2.68-5.37,5.1-9.8,7.11-13.29l17.18-29.52h15L2357,1708.74Z" transform="translate(-122.45 -253.82)"/><path class="cls-1" d="M1254.45,253.82c-153.82.82-277.14,128-277.14,281.82v288c0,153.82,123.32,281,277.14,281.82,154.33.82,280.14-124.49,280.14-278.63V532.46C1534.59,378.31,1408.78,253,1254.45,253.82Zm261.2,573a258.21,258.21,0,0,1-40.83,139.64.13.13,0,0,1-.15.05c-24.73-8.94-45.56-20.34-47.12-29-1.41-7.73-2.18-17.17-3-27.15-1.89-23.14-4-49.35-15.06-69-12.67-22.6-20.2-60.56-21.38-71.1a64.2,64.2,0,0,1,0-8c.24-8,.52-17-7.15-20.83-4.9-2.45-10.42-1.26-16.43,3.55-1.47,1.17-2.9,2.33-4.3,3.46-7.29,5.89-15.53,12.54-19.46,13.49h0a98.56,98.56,0,0,1-10-2c-14.54-3.37-36.52-8.46-53.83-1.75a103,103,0,0,0-22.14,11.74c-5.56,3.74-5.9,4-10.07,2.92-13.12-3.28-53.68-20.37-58.13-22.6l-.28-.14c-4.47-2.24-16.32-8.18-25.92-2.26-5.87,3.63-8.85,10.21-8.85,19.55a102.39,102.39,0,0,0,2.6,23.17c1.2,5.79,2.14,10.36,1.76,18.28-1.5,30.9,20.49,50.1,44.48,66.25,3.61,2.43,7.29,4.83,11,7.24,20,13.12,40.76,26.69,45.81,41.66,5.34,15.87,31.94,113.73,44.05,158.51a.12.12,0,0,1-.1.15,259.9,259.9,0,0,1-45.11,3.93h0c-121,0-223-83.21-251.63-195.42a.14.14,0,0,1,0-.09c42.25-79,113.46-206,139-229.59,32.66-30.25,46.7-25.71,63-20.46,10.82,3.5,23.9,7.8,38.33,12.54,59.39,19.54,140.74,46.29,183.57,56.06,21.75,5,39.43-5,52.56-29.7,8.85-16.65,6.07-35.72-7.85-53.71-19.52-25.24-57.75-65.89-94.71-105.2-35.35-37.6-79.34-84.4-83.11-94-4.23-10.76-.59-27.94,4-49.69.77-3.64,1.57-7.42,2.37-11.33,3.63-17.77,4.39-31.09-3.7-38.38-5-4.48-11.94-5.35-20.69-2.59-17.41,5.51-40.63,27.42-65.22,50.61-10.74,10.13-20.88,19.7-30.09,27.44-26.64,22.37-38,24-60.52,27.18l-2.3.33c-20,2.85-83.71,28.73-115.46,42a.12.12,0,0,1-.16-.15c26.67-112,126.12-196.15,245.42-199.43,146.77-4,266.92,116.06,266.92,262.88Zm-195.79,251.72a.12.12,0,0,1-.15-.08c-12-44.55-39-143.92-44.65-160.59-7.14-21.19-30.65-36.58-53.39-51.46-3.61-2.36-7.22-4.73-10.76-7.11-26.86-18.08-37-32-36.14-49.61a81.81,81.81,0,0,0-2.12-23,83.7,83.7,0,0,1-2.21-19.34c0-1.47,0-1.93.9-2.48s6.73,2.28,6.73,2.28c5.13,2.57,46.74,20.22,62,24,12.34,3.09,18.61-1.12,25.24-5.58a84.41,84.41,0,0,1,18.42-9.79c11.86-4.61,30.42-.31,42.7,2.54,8.08,1.87,13,3,17.08,2.32,6.9-1.15,13.85-5.86,22-12.24a2.23,2.23,0,0,1,3.6,1.67c0,.76.1,1.52.18,2.27,1,8.92,8.32,50.88,23.68,78.27,9,16.09,11,40.12,12.7,61.33.86,10.46,1.66,20.35,3.23,29,2.63,14.44,18.82,27.4,49.49,39.61,1.7.67,3.4,1.32,5.08,2a.12.12,0,0,1,.06.19A260.4,260.4,0,0,1,1319.86,1078.51ZM996.26,826.79V532.46A260.83,260.83,0,0,1,999,494.94a.14.14,0,0,1,.07-.1c32.48-13.72,104.25-43,122.55-45.61l2.3-.33c24.47-3.47,39.24-5.57,70-31.43,9.63-8.09,20.45-18.3,30.91-28.17,20.93-19.74,44.66-42.13,57.93-46.32a2.53,2.53,0,0,1,2.19.31c1.85,1.32.38,6.79-2.08,18.79-.79,3.87-1.58,7.61-2.34,11.2-5.27,24.86-9.43,44.5-3.12,60.55,4.86,12.38,36.21,46.08,86.95,100.05,36.65,39,74.56,79.31,93.52,103.82,9.35,12.09,11.41,23.27,6.11,33.22-9.09,17.09-18.54,23.11-31.62,20.13-42-9.57-122.82-36.17-181.86-55.59-14.47-4.75-27.58-9.07-38.43-12.57-23.16-7.49-43.87-10.42-81.67,24.59-27.53,25.5-96.05,148.33-131.62,213.89a.12.12,0,0,1-.23,0A260.52,260.52,0,0,1,996.26,826.79Z" transform="translate(-122.45 -253.82)"/></svg>